Sheboygan-Regular-191108.ufo
<glyph name="zero" format="2">
	<advance width="867"/>
	<unicode hex="0030"/>
	<note>
		zero
  </note>
	<outline>
		<contour>
			<point x="200" y="-20" type="curve" smooth="yes"/>
			<point x="667" y="-20" type="line" smooth="yes"/>
			<point x="680" y="-20"/>
			<point x="687" y="-13"/>
			<point x="687" y="0" type="curve" smooth="yes"/>
			<point x="687" y="700" type="line" smooth="yes"/>
			<point x="687" y="713"/>
			<point x="680" y="720"/>
			<point x="667" y="720" type="curve" smooth="yes"/>
			<point x="200" y="720" type="line" smooth="yes"/>
			<point x="187" y="720"/>
			<point x="180" y="713"/>
			<point x="180" y="700" type="curve" smooth="yes"/>
			<point x="180" y="0" type="line" smooth="yes"/>
			<point x="180" y="-13"/>
			<point x="187" y="-20"/>
		</contour>
		<contour>
			<point x="647" y="20" type="line"/>
			<point x="220" y="20" type="line"/>
			<point x="220" y="680" type="line"/>
			<point x="647" y="680" type="line"/>
		</contour>
		<contour>
			<point x="317" y="155" type="curve" smooth="yes"/>
			<point x="324" y="155"/>
			<point x="330" y="159"/>
			<point x="334" y="164" type="curve" smooth="yes"/>
			<point x="566" y="514" type="line"/>
			<point x="569" y="517"/>
			<point x="570" y="521"/>
			<point x="570" y="525" type="curve" smooth="yes"/>
			<point x="570" y="536"/>
			<point x="561" y="545"/>
			<point x="550" y="545" type="curve" smooth="yes"/>
			<point x="543" y="545"/>
			<point x="537" y="541"/>
			<point x="533" y="536" type="curve" smooth="yes"/>
			<point x="301" y="186" type="line"/>
			<point x="298" y="183"/>
			<point x="297" y="179"/>
			<point x="297" y="175" type="curve" smooth="yes"/>
			<point x="297" y="164"/>
			<point x="306" y="155"/>
		</contour>
	</outline>
</glyph>
<glyph name="one" format="2">
	<advance width="867"/>
	<unicode hex="0031"/>
	<note>
		one
  </note>
	<outline>
		<contour>
			<point x="200" y="505" type="curve" smooth="yes"/>
			<point x="207" y="505"/>
			<point x="213" y="509"/>
			<point x="217" y="514" type="curve" smooth="yes"/>
			<point x="333" y="689" type="line"/>
			<point x="336" y="692"/>
			<point x="337" y="696"/>
			<point x="337" y="700" type="curve" smooth="yes"/>
			<point x="337" y="711"/>
			<point x="328" y="720"/>
			<point x="317" y="720" type="curve" smooth="yes"/>
			<point x="310" y="720"/>
			<point x="304" y="716"/>
			<point x="300" y="711" type="curve" smooth="yes"/>
			<point x="184" y="536" type="line"/>
			<point x="181" y="533"/>
			<point x="180" y="529"/>
			<point x="180" y="525" type="curve" smooth="yes"/>
			<point x="180" y="514"/>
			<point x="189" y="505"/>
		</contour>
		<contour>
			<point x="200" y="-20" type="curve" smooth="yes"/>
			<point x="667" y="-20" type="line" smooth="yes"/>
			<point x="678" y="-20"/>
			<point x="687" y="-11"/>
			<point x="687" y="0" type="curve" smooth="yes"/>
			<point x="687" y="11"/>
			<point x="678" y="20"/>
			<point x="667" y="20" type="curve" smooth="yes"/>
			<point x="200" y="20" type="line" smooth="yes"/>
			<point x="189" y="20"/>
			<point x="180" y="11"/>
			<point x="180" y="0" type="curve" smooth="yes"/>
			<point x="180" y="-11"/>
			<point x="189" y="-20"/>
		</contour>
		<contour>
			<point x="434" y="155" type="curve" smooth="yes"/>
			<point x="445" y="155"/>
			<point x="454" y="164"/>
			<point x="454" y="175" type="curve" smooth="yes"/>
			<point x="454" y="700" type="line" smooth="yes"/>
			<point x="454" y="711"/>
			<point x="445" y="720"/>
			<point x="434" y="720" type="curve" smooth="yes"/>
			<point x="423" y="720"/>
			<point x="414" y="711"/>
			<point x="414" y="700" type="curve" smooth="yes"/>
			<point x="414" y="175" type="line" smooth="yes"/>
			<point x="414" y="164"/>
			<point x="423" y="155"/>
		</contour>
	</outline>
</glyph>
<glyph name="two" format="2">
	<advance width="867"/>
	<unicode hex="0032"/>
	<note>
		two
  </note>
	<outline>
		<contour>
			<point x="200" y="505" type="curve" smooth="yes"/>
			<point x="211" y="505"/>
			<point x="220" y="514"/>
			<point x="220" y="525" type="curve" smooth="yes"/>
			<point x="220" y="680" type="line"/>
			<point x="666" y="680" type="line" smooth="yes"/>
			<point x="677" y="680"/>
			<point x="686" y="689"/>
			<point x="686" y="700" type="curve" smooth="yes"/>
			<point x="686" y="711"/>
			<point x="677" y="720"/>
			<point x="666" y="720" type="curve" smooth="yes"/>
			<point x="200" y="720" type="line" smooth="yes"/>
			<point x="189" y="720"/>
			<point x="180" y="711"/>
			<point x="180" y="700" type="curve" smooth="yes"/>
			<point x="180" y="525" type="line" smooth="yes"/>
			<point x="180" y="514"/>
			<point x="189" y="505"/>
		</contour>
		<contour>
			<point x="200" y="-20" type="curve" smooth="yes"/>
			<point x="666" y="-20" type="line" smooth="yes"/>
			<point x="677" y="-20"/>
			<point x="686" y="-11"/>
			<point x="686" y="0" type="curve" smooth="yes"/>
			<point x="686" y="11"/>
			<point x="677" y="20"/>
			<point x="666" y="20" type="curve" smooth="yes"/>
			<point x="200" y="20" type="line" smooth="yes"/>
			<point x="189" y="20"/>
			<point x="180" y="11"/>
			<point x="180" y="0" type="curve" smooth="yes"/>
			<point x="180" y="-11"/>
			<point x="189" y="-20"/>
		</contour>
		<contour>
			<point x="316" y="155" type="curve" smooth="yes"/>
			<point x="323" y="155"/>
			<point x="329" y="159"/>
			<point x="333" y="164" type="curve" smooth="yes"/>
			<point x="566" y="514" type="line"/>
			<point x="569" y="517"/>
			<point x="570" y="521"/>
			<point x="570" y="525" type="curve" smooth="yes"/>
			<point x="570" y="536"/>
			<point x="561" y="545"/>
			<point x="550" y="545" type="curve" smooth="yes"/>
			<point x="543" y="545"/>
			<point x="537" y="541"/>
			<point x="533" y="536" type="curve" smooth="yes"/>
			<point x="300" y="186" type="line"/>
			<point x="297" y="183"/>
			<point x="296" y="179"/>
			<point x="296" y="175" type="curve" smooth="yes"/>
			<point x="296" y="164"/>
			<point x="305" y="155"/>
		</contour>
	</outline>
</glyph>
<glyph name="three" format="2">
	<advance width="867"/>
	<unicode hex="0033"/>
	<note>
		three
  </note>
	<outline>
		<contour>
			<point x="666" y="-20" type="curve" smooth="yes"/>
			<point x="677" y="-20"/>
			<point x="686" y="-11"/>
			<point x="686" y="0" type="curve" smooth="yes"/>
			<point x="686" y="700" type="line" smooth="yes"/>
			<point x="686" y="711"/>
			<point x="677" y="720"/>
			<point x="666" y="720" type="curve" smooth="yes"/>
			<point x="655" y="720"/>
			<point x="646" y="711"/>
			<point x="646" y="700" type="curve" smooth="yes"/>
			<point x="646" y="0" type="line" smooth="yes"/>
			<point x="646" y="-11"/>
			<point x="655" y="-20"/>
		</contour>
		<contour>
			<point x="200" y="-20" type="curve" smooth="yes"/>
			<point x="433" y="-20" type="line" smooth="yes"/>
			<point x="444" y="-20"/>
			<point x="453" y="-11"/>
			<point x="453" y="0" type="curve" smooth="yes"/>
			<point x="453" y="11"/>
			<point x="444" y="20"/>
			<point x="433" y="20" type="curve" smooth="yes"/>
			<point x="200" y="20" type="line" smooth="yes"/>
			<point x="189" y="20"/>
			<point x="180" y="11"/>
			<point x="180" y="0" type="curve" smooth="yes"/>
			<point x="180" y="-11"/>
			<point x="189" y="-20"/>
		</contour>
		<contour>
			<point x="200" y="330" type="curve" smooth="yes"/>
			<point x="433" y="330" type="line" smooth="yes"/>
			<point x="444" y="330"/>
			<point x="453" y="339"/>
			<point x="453" y="350" type="curve" smooth="yes"/>
			<point x="453" y="361"/>
			<point x="444" y="370"/>
			<point x="433" y="370" type="curve" smooth="yes"/>
			<point x="200" y="370" type="line" smooth="yes"/>
			<point x="189" y="370"/>
			<point x="180" y="361"/>
			<point x="180" y="350" type="curve" smooth="yes"/>
			<point x="180" y="339"/>
			<point x="189" y="330"/>
		</contour>
		<contour>
			<point x="200" y="680" type="curve" smooth="yes"/>
			<point x="433" y="680" type="line" smooth="yes"/>
			<point x="444" y="680"/>
			<point x="453" y="689"/>
			<point x="453" y="700" type="curve" smooth="yes"/>
			<point x="453" y="711"/>
			<point x="444" y="720"/>
			<point x="433" y="720" type="curve" smooth="yes"/>
			<point x="200" y="720" type="line" smooth="yes"/>
			<point x="189" y="720"/>
			<point x="180" y="711"/>
			<point x="180" y="700" type="curve" smooth="yes"/>
			<point x="180" y="689"/>
			<point x="189" y="680"/>
		</contour>
	</outline>
</glyph>
<glyph name="four" format="2">
	<advance width="867"/>
	<unicode hex="0034"/>
	<note>
		four
  </note>
	<outline>
		<contour>
			<point x="667" y="-20" type="curve" smooth="yes"/>
			<point x="678" y="-20"/>
			<point x="687" y="-11"/>
			<point x="687" y="0" type="curve" smooth="yes"/>
			<point x="687" y="700" type="line" smooth="yes"/>
			<point x="687" y="711"/>
			<point x="678" y="720"/>
			<point x="667" y="720" type="curve" smooth="yes"/>
			<point x="656" y="720"/>
			<point x="647" y="711"/>
			<point x="647" y="700" type="curve" smooth="yes"/>
			<point x="647" y="0" type="line" smooth="yes"/>
			<point x="647" y="-11"/>
			<point x="656" y="-20"/>
		</contour>
		<contour>
			<point x="200" y="330" type="curve" smooth="yes"/>
			<point x="211" y="330"/>
			<point x="220" y="339"/>
			<point x="220" y="350" type="curve" smooth="yes"/>
			<point x="220" y="700" type="line" smooth="yes"/>
			<point x="220" y="711"/>
			<point x="211" y="720"/>
			<point x="200" y="720" type="curve" smooth="yes"/>
			<point x="189" y="720"/>
			<point x="180" y="711"/>
			<point x="180" y="700" type="curve" smooth="yes"/>
			<point x="180" y="350" type="line" smooth="yes"/>
			<point x="180" y="339"/>
			<point x="189" y="330"/>
		</contour>
		<contour>
			<point x="317" y="330" type="curve" smooth="yes"/>
			<point x="550" y="330" type="line" smooth="yes"/>
			<point x="561" y="330"/>
			<point x="570" y="339"/>
			<point x="570" y="350" type="curve" smooth="yes"/>
			<point x="570" y="361"/>
			<point x="561" y="370"/>
			<point x="550" y="370" type="curve" smooth="yes"/>
			<point x="317" y="370" type="line" smooth="yes"/>
			<point x="306" y="370"/>
			<point x="297" y="361"/>
			<point x="297" y="350" type="curve" smooth="yes"/>
			<point x="297" y="339"/>
			<point x="306" y="330"/>
		</contour>
	</outline>
</glyph>
<glyph name="five" format="2">
	<advance width="867"/>
	<unicode hex="0035"/>
	<note>
		five
  </note>
	<outline>
		<contour>
			<point x="201" y="330" type="curve"/>
			<point x="190" y="330"/>
			<point x="182" y="338"/>
			<point x="182" y="350" type="curve"/>
			<point x="182" y="701" type="line"/>
			<point x="182" y="711"/>
			<point x="190" y="720"/>
			<point x="201" y="720" type="curve"/>
			<point x="668" y="720" type="line"/>
			<point x="680" y="720"/>
			<point x="689" y="711"/>
			<point x="689" y="701" type="curve"/>
			<point x="689" y="689"/>
			<point x="680" y="681"/>
			<point x="668" y="681" type="curve"/>
			<point x="221" y="681" type="line"/>
			<point x="221" y="350" type="line"/>
			<point x="221" y="338"/>
			<point x="212" y="330"/>
		</contour>
		<contour>
			<point x="318" y="-20" type="curve"/>
			<point x="311" y="-20"/>
			<point x="305" y="-16"/>
			<point x="301" y="-10" type="curve"/>
			<point x="297" y="0"/>
			<point x="300" y="11"/>
			<point x="310" y="16" type="curve"/>
			<point x="625" y="174" type="line"/>
			<point x="310" y="332" type="line"/>
			<point x="300" y="337"/>
			<point x="297" y="349"/>
			<point x="301" y="358" type="curve"/>
			<point x="306" y="368"/>
			<point x="317" y="371"/>
			<point x="328" y="367" type="curve"/>
			<point x="678" y="192" type="line"/>
			<point x="685" y="189"/>
			<point x="689" y="182"/>
			<point x="689" y="174" type="curve"/>
			<point x="689" y="167"/>
			<point x="685" y="160"/>
			<point x="678" y="157" type="curve"/>
			<point x="328" y="-18" type="line"/>
			<point x="325" y="-19"/>
			<point x="321" y="-20"/>
		</contour>
	</outline>
</glyph>
<glyph name="seven" format="2">
	<advance width="867"/>
	<unicode hex="0037"/>
	<note>
		seven
  </note>
	<outline>
		<contour>
			<point x="200" y="-20" type="curve" smooth="yes"/>
			<point x="207" y="-20"/>
			<point x="213" y="-16"/>
			<point x="217" y="-11" type="curve" smooth="yes"/>
			<point x="683" y="689" type="line"/>
			<point x="686" y="692"/>
			<point x="687" y="696"/>
			<point x="687" y="700" type="curve" smooth="yes"/>
			<point x="687" y="711"/>
			<point x="678" y="720"/>
			<point x="667" y="720" type="curve" smooth="yes"/>
			<point x="660" y="720"/>
			<point x="654" y="716"/>
			<point x="650" y="711" type="curve" smooth="yes"/>
			<point x="184" y="11" type="line"/>
			<point x="181" y="8"/>
			<point x="180" y="4"/>
			<point x="180" y="0" type="curve" smooth="yes"/>
			<point x="180" y="-11"/>
			<point x="189" y="-20"/>
		</contour>
		<contour>
			<point x="200" y="680" type="curve" smooth="yes"/>
			<point x="433" y="680" type="line" smooth="yes"/>
			<point x="444" y="680"/>
			<point x="453" y="689"/>
			<point x="453" y="700" type="curve" smooth="yes"/>
			<point x="453" y="711"/>
			<point x="444" y="720"/>
			<point x="433" y="720" type="curve" smooth="yes"/>
			<point x="200" y="720" type="line" smooth="yes"/>
			<point x="189" y="720"/>
			<point x="180" y="711"/>
			<point x="180" y="700" type="curve" smooth="yes"/>
			<point x="180" y="689"/>
			<point x="189" y="680"/>
		</contour>
	</outline>
</glyph>
<glyph name="eight" format="2">
	<advance width="867"/>
	<unicode hex="0038"/>
	<note>
		eight
  </note>
	<outline>
		<contour>
			<point x="550" y="-20" type="curve" smooth="yes"/>
			<point x="557" y="-20"/>
			<point x="563" y="-16"/>
			<point x="567" y="-11" type="curve" smooth="yes"/>
			<point x="682" y="161" type="line" smooth="yes"/>
			<point x="688" y="171"/>
			<point x="688" y="179"/>
			<point x="682" y="189" type="curve" smooth="yes"/>
			<point x="574" y="350" type="line"/>
			<point x="682" y="511" type="line" smooth="yes"/>
			<point x="688" y="521"/>
			<point x="688" y="529"/>
			<point x="682" y="539" type="curve" smooth="yes"/>
			<point x="567" y="711" type="line" smooth="yes"/>
			<point x="563" y="716"/>
			<point x="557" y="720"/>
			<point x="550" y="720" type="curve" smooth="yes"/>
			<point x="539" y="720"/>
			<point x="530" y="711"/>
			<point x="530" y="700" type="curve" smooth="yes"/>
			<point x="530" y="696"/>
			<point x="531" y="692"/>
			<point x="534" y="689" type="curve"/>
			<point x="643" y="525" type="line"/>
			<point x="535" y="364" type="line" smooth="yes"/>
			<point x="529" y="354"/>
			<point x="529" y="346"/>
			<point x="535" y="336" type="curve" smooth="yes"/>
			<point x="643" y="175" type="line"/>
			<point x="534" y="11" type="line"/>
			<point x="531" y="8"/>
			<point x="530" y="4"/>
			<point x="530" y="0" type="curve" smooth="yes"/>
			<point x="530" y="-11"/>
			<point x="539" y="-20"/>
		</contour>
		<contour>
			<point x="317" y="-20" type="curve" smooth="yes"/>
			<point x="328" y="-20"/>
			<point x="337" y="-11"/>
			<point x="337" y="0" type="curve" smooth="yes"/>
			<point x="337" y="4"/>
			<point x="336" y="8"/>
			<point x="333" y="11" type="curve"/>
			<point x="224" y="175" type="line"/>
			<point x="332" y="336" type="line" smooth="yes"/>
			<point x="338" y="346"/>
			<point x="338" y="354"/>
			<point x="332" y="364" type="curve" smooth="yes"/>
			<point x="224" y="525" type="line"/>
			<point x="333" y="689" type="line"/>
			<point x="336" y="692"/>
			<point x="337" y="696"/>
			<point x="337" y="700" type="curve" smooth="yes"/>
			<point x="337" y="711"/>
			<point x="328" y="720"/>
			<point x="317" y="720" type="curve" smooth="yes"/>
			<point x="310" y="720"/>
			<point x="304" y="716"/>
			<point x="300" y="711" type="curve" smooth="yes"/>
			<point x="185" y="539" type="line" smooth="yes"/>
			<point x="179" y="529"/>
			<point x="179" y="521"/>
			<point x="185" y="511" type="curve" smooth="yes"/>
			<point x="293" y="350" type="line"/>
			<point x="185" y="189" type="line" smooth="yes"/>
			<point x="179" y="179"/>
			<point x="179" y="171"/>
			<point x="185" y="161" type="curve" smooth="yes"/>
			<point x="300" y="-11" type="line" smooth="yes"/>
			<point x="304" y="-16"/>
			<point x="310" y="-20"/>
		</contour>
	</outline>
</glyph>
<glyph name="nine" format="2">
	<advance width="867"/>
	<unicode hex="0039"/>
	<note>
		nine
  </note>
	<outline>
		<contour>
			<point x="317" y="330" type="curve" smooth="yes"/>
			<point x="328" y="330"/>
			<point x="337" y="339"/>
			<point x="337" y="350" type="curve" smooth="yes"/>
			<point x="337" y="354"/>
			<point x="336" y="358"/>
			<point x="333" y="361" type="curve"/>
			<point x="224" y="525" type="line"/>
			<point x="333" y="689" type="line"/>
			<point x="336" y="692"/>
			<point x="337" y="696"/>
			<point x="337" y="700" type="curve" smooth="yes"/>
			<point x="337" y="711"/>
			<point x="328" y="720"/>
			<point x="317" y="720" type="curve" smooth="yes"/>
			<point x="310" y="720"/>
			<point x="304" y="716"/>
			<point x="300" y="711" type="curve" smooth="yes"/>
			<point x="185" y="539" type="line" smooth="yes"/>
			<point x="179" y="529"/>
			<point x="179" y="521"/>
			<point x="185" y="511" type="curve" smooth="yes"/>
			<point x="300" y="339" type="line" smooth="yes"/>
			<point x="304" y="334"/>
			<point x="310" y="330"/>
		</contour>
		<contour>
			<point x="667" y="-20" type="curve" smooth="yes"/>
			<point x="678" y="-20"/>
			<point x="687" y="-11"/>
			<point x="687" y="0" type="curve" smooth="yes"/>
			<point x="687" y="700" type="line" smooth="yes"/>
			<point x="687" y="711"/>
			<point x="678" y="720"/>
			<point x="667" y="720" type="curve" smooth="yes"/>
			<point x="656" y="720"/>
			<point x="647" y="711"/>
			<point x="647" y="700" type="curve" smooth="yes"/>
			<point x="647" y="0" type="line" smooth="yes"/>
			<point x="647" y="-11"/>
			<point x="656" y="-20"/>
		</contour>
	</outline>
</glyph>
<glyph name="A" format="2">
	<advance width="867"/>
	<unicode hex="0041"/>
	<note>
		A
  </note>
	<outline>
		<contour>
			<point x="200" y="330" type="curve" smooth="yes"/>
			<point x="207" y="330"/>
			<point x="213" y="334"/>
			<point x="217" y="339" type="curve" smooth="yes"/>
			<point x="438" y="664" type="line"/>
			<point x="650" y="339" type="line" smooth="yes"/>
			<point x="654" y="334"/>
			<point x="660" y="330"/>
			<point x="667" y="330" type="curve" smooth="yes"/>
			<point x="678" y="330"/>
			<point x="687" y="339"/>
			<point x="687" y="350" type="curve" smooth="yes"/>
			<point x="687" y="354"/>
			<point x="686" y="358"/>
			<point x="684" y="361" type="curve" smooth="yes"/>
			<point x="452" y="715" type="line" smooth="yes"/>
			<point x="444" y="728"/>
			<point x="433" y="728"/>
			<point x="424" y="715" type="curve" smooth="yes"/>
			<point x="184" y="361" type="line"/>
			<point x="181" y="358"/>
			<point x="180" y="354"/>
			<point x="180" y="350" type="curve" smooth="yes"/>
			<point x="180" y="339"/>
			<point x="189" y="330"/>
		</contour>
		<contour>
			<point x="200" y="-20" type="curve" smooth="yes"/>
			<point x="667" y="-20" type="line" smooth="yes"/>
			<point x="678" y="-20"/>
			<point x="687" y="-11"/>
			<point x="687" y="0" type="curve" smooth="yes"/>
			<point x="687" y="11"/>
			<point x="678" y="20"/>
			<point x="667" y="20" type="curve" smooth="yes"/>
			<point x="200" y="20" type="line" smooth="yes"/>
			<point x="189" y="20"/>
			<point x="180" y="11"/>
			<point x="180" y="0" type="curve" smooth="yes"/>
			<point x="180" y="-11"/>
			<point x="189" y="-20"/>
		</contour>
	</outline>
</glyph>
<glyph name="B" format="2">
	<advance width="867"/>
	<unicode hex="0042"/>
	<note>
		B
  </note>
	<outline>
		<contour>
			<point x="550" y="-20" type="curve" smooth="yes"/>
			<point x="557" y="-20"/>
			<point x="563" y="-16"/>
			<point x="567" y="-11" type="curve" smooth="yes"/>
			<point x="682" y="161" type="line" smooth="yes"/>
			<point x="688" y="171"/>
			<point x="688" y="179"/>
			<point x="682" y="189" type="curve" smooth="yes"/>
			<point x="574" y="350" type="line"/>
			<point x="682" y="511" type="line" smooth="yes"/>
			<point x="688" y="521"/>
			<point x="688" y="529"/>
			<point x="682" y="539" type="curve" smooth="yes"/>
			<point x="567" y="711" type="line" smooth="yes"/>
			<point x="563" y="716"/>
			<point x="557" y="720"/>
			<point x="550" y="720" type="curve" smooth="yes"/>
			<point x="539" y="720"/>
			<point x="530" y="711"/>
			<point x="530" y="700" type="curve" smooth="yes"/>
			<point x="530" y="696"/>
			<point x="531" y="692"/>
			<point x="534" y="689" type="curve"/>
			<point x="643" y="525" type="line"/>
			<point x="535" y="364" type="line" smooth="yes"/>
			<point x="529" y="354"/>
			<point x="529" y="346"/>
			<point x="535" y="336" type="curve" smooth="yes"/>
			<point x="643" y="175" type="line"/>
			<point x="534" y="11" type="line"/>
			<point x="531" y="8"/>
			<point x="530" y="4"/>
			<point x="530" y="0" type="curve" smooth="yes"/>
			<point x="530" y="-11"/>
			<point x="539" y="-20"/>
		</contour>
		<contour>
			<point x="200" y="-20" type="curve" smooth="yes"/>
			<point x="211" y="-20"/>
			<point x="220" y="-11"/>
			<point x="220" y="0" type="curve" smooth="yes"/>
			<point x="220" y="700" type="line" smooth="yes"/>
			<point x="220" y="711"/>
			<point x="211" y="720"/>
			<point x="200" y="720" type="curve" smooth="yes"/>
			<point x="189" y="720"/>
			<point x="180" y="711"/>
			<point x="180" y="700" type="curve" smooth="yes"/>
			<point x="180" y="0" type="line" smooth="yes"/>
			<point x="180" y="-11"/>
			<point x="189" y="-20"/>
		</contour>
	</outline>
</glyph>
<glyph name="C" format="2">
	<advance width="867"/>
	<unicode hex="0043"/>
	<note>
		C
  </note>
	<outline>
		<contour>
			<point x="200" y="-20" type="curve" smooth="yes"/>
			<point x="666" y="-20" type="line" smooth="yes"/>
			<point x="677" y="-20"/>
			<point x="686" y="-11"/>
			<point x="686" y="0" type="curve" smooth="yes"/>
			<point x="686" y="11"/>
			<point x="677" y="20"/>
			<point x="666" y="20" type="curve" smooth="yes"/>
			<point x="220" y="20" type="line"/>
			<point x="220" y="680" type="line"/>
			<point x="666" y="680" type="line" smooth="yes"/>
			<point x="677" y="680"/>
			<point x="686" y="689"/>
			<point x="686" y="700" type="curve" smooth="yes"/>
			<point x="686" y="711"/>
			<point x="677" y="720"/>
			<point x="666" y="720" type="curve" smooth="yes"/>
			<point x="200" y="720" type="line" smooth="yes"/>
			<point x="187" y="720"/>
			<point x="180" y="713"/>
			<point x="180" y="700" type="curve" smooth="yes"/>
			<point x="180" y="0" type="line" smooth="yes"/>
			<point x="180" y="-13"/>
			<point x="187" y="-20"/>
		</contour>
	</outline>
</glyph>
<glyph name="D" format="2">
	<advance width="867"/>
	<unicode hex="0044"/>
	<note>
		D
  </note>
	<outline>
		<contour>
			<point x="433" y="-20" type="curve" smooth="yes"/>
			<point x="440" y="-20"/>
			<point x="446" y="-16"/>
			<point x="450" y="-11" type="curve" smooth="yes"/>
			<point x="681" y="336" type="line" smooth="yes"/>
			<point x="687" y="346"/>
			<point x="687" y="354"/>
			<point x="681" y="364" type="curve" smooth="yes"/>
			<point x="450" y="711" type="line" smooth="yes"/>
			<point x="446" y="716"/>
			<point x="440" y="720"/>
			<point x="433" y="720" type="curve" smooth="yes"/>
			<point x="422" y="720"/>
			<point x="413" y="711"/>
			<point x="413" y="700" type="curve" smooth="yes"/>
			<point x="413" y="696"/>
			<point x="414" y="692"/>
			<point x="417" y="689" type="curve"/>
			<point x="642" y="350" type="line"/>
			<point x="417" y="11" type="line"/>
			<point x="414" y="8"/>
			<point x="413" y="4"/>
			<point x="413" y="0" type="curve" smooth="yes"/>
			<point x="413" y="-11"/>
			<point x="422" y="-20"/>
		</contour>
		<contour>
			<point x="200" y="-20" type="curve" smooth="yes"/>
			<point x="211" y="-20"/>
			<point x="220" y="-11"/>
			<point x="220" y="0" type="curve" smooth="yes"/>
			<point x="220" y="700" type="line" smooth="yes"/>
			<point x="220" y="711"/>
			<point x="211" y="720"/>
			<point x="200" y="720" type="curve" smooth="yes"/>
			<point x="189" y="720"/>
			<point x="180" y="711"/>
			<point x="180" y="700" type="curve" smooth="yes"/>
			<point x="180" y="0" type="line" smooth="yes"/>
			<point x="180" y="-11"/>
			<point x="189" y="-20"/>
		</contour>
	</outline>
</glyph>
<glyph name="F" format="2">
	<advance width="867"/>
	<unicode hex="0046"/>
	<note>
		F
  </note>
	<outline>
		<contour>
			<point x="200" y="-20" type="curve" smooth="yes"/>
			<point x="211" y="-20"/>
			<point x="220" y="-11"/>
			<point x="220" y="0" type="curve" smooth="yes"/>
			<point x="220" y="700" type="line" smooth="yes"/>
			<point x="220" y="711"/>
			<point x="211" y="720"/>
			<point x="200" y="720" type="curve" smooth="yes"/>
			<point x="189" y="720"/>
			<point x="180" y="711"/>
			<point x="180" y="700" type="curve" smooth="yes"/>
			<point x="180" y="0" type="line" smooth="yes"/>
			<point x="180" y="-11"/>
			<point x="189" y="-20"/>
		</contour>
		<contour>
			<point x="433" y="330" type="curve" smooth="yes"/>
			<point x="666" y="330" type="line" smooth="yes"/>
			<point x="677" y="330"/>
			<point x="686" y="339"/>
			<point x="686" y="350" type="curve" smooth="yes"/>
			<point x="686" y="361"/>
			<point x="677" y="370"/>
			<point x="666" y="370" type="curve" smooth="yes"/>
			<point x="433" y="370" type="line" smooth="yes"/>
			<point x="422" y="370"/>
			<point x="413" y="361"/>
			<point x="413" y="350" type="curve" smooth="yes"/>
			<point x="413" y="339"/>
			<point x="422" y="330"/>
		</contour>
		<contour>
			<point x="433" y="680" type="curve" smooth="yes"/>
			<point x="666" y="680" type="line" smooth="yes"/>
			<point x="677" y="680"/>
			<point x="686" y="689"/>
			<point x="686" y="700" type="curve" smooth="yes"/>
			<point x="686" y="711"/>
			<point x="677" y="720"/>
			<point x="666" y="720" type="curve" smooth="yes"/>
			<point x="433" y="720" type="line" smooth="yes"/>
			<point x="422" y="720"/>
			<point x="413" y="711"/>
			<point x="413" y="700" type="curve" smooth="yes"/>
			<point x="413" y="689"/>
			<point x="422" y="680"/>
		</contour>
	</outline>
</glyph>
<glyph name="H" format="2">
	<advance width="867"/>
	<unicode hex="0048"/>
	<note>
		H
  </note>
	<outline>
		<contour>
			<point x="666" y="-20" type="curve" smooth="yes"/>
			<point x="677" y="-20"/>
			<point x="686" y="-11"/>
			<point x="686" y="0" type="curve" smooth="yes"/>
			<point x="686" y="700" type="line" smooth="yes"/>
			<point x="686" y="711"/>
			<point x="677" y="720"/>
			<point x="666" y="720" type="curve" smooth="yes"/>
			<point x="655" y="720"/>
			<point x="646" y="711"/>
			<point x="646" y="700" type="curve" smooth="yes"/>
			<point x="646" y="0" type="line" smooth="yes"/>
			<point x="646" y="-11"/>
			<point x="655" y="-20"/>
		</contour>
		<contour>
			<point x="200" y="-20" type="curve" smooth="yes"/>
			<point x="211" y="-20"/>
			<point x="220" y="-11"/>
			<point x="220" y="0" type="curve" smooth="yes"/>
			<point x="220" y="700" type="line" smooth="yes"/>
			<point x="220" y="711"/>
			<point x="211" y="720"/>
			<point x="200" y="720" type="curve" smooth="yes"/>
			<point x="189" y="720"/>
			<point x="180" y="711"/>
			<point x="180" y="700" type="curve" smooth="yes"/>
			<point x="180" y="0" type="line" smooth="yes"/>
			<point x="180" y="-11"/>
			<point x="189" y="-20"/>
		</contour>
		<contour>
			<point x="316" y="330" type="curve" smooth="yes"/>
			<point x="550" y="330" type="line" smooth="yes"/>
			<point x="561" y="330"/>
			<point x="570" y="339"/>
			<point x="570" y="350" type="curve" smooth="yes"/>
			<point x="570" y="361"/>
			<point x="561" y="370"/>
			<point x="550" y="370" type="curve" smooth="yes"/>
			<point x="316" y="370" type="line" smooth="yes"/>
			<point x="305" y="370"/>
			<point x="296" y="361"/>
			<point x="296" y="350" type="curve" smooth="yes"/>
			<point x="296" y="339"/>
			<point x="305" y="330"/>
		</contour>
	</outline>
</glyph>
<glyph name="I" format="2">
	<advance width="867"/>
	<unicode hex="0049"/>
	<note>
		I
  </note>
	<outline>
		<contour>
			<point x="200" y="680" type="curve" smooth="yes"/>
			<point x="666" y="680" type="line" smooth="yes"/>
			<point x="677" y="680"/>
			<point x="686" y="689"/>
			<point x="686" y="700" type="curve" smooth="yes"/>
			<point x="686" y="711"/>
			<point x="677" y="720"/>
			<point x="666" y="720" type="curve" smooth="yes"/>
			<point x="200" y="720" type="line" smooth="yes"/>
			<point x="189" y="720"/>
			<point x="180" y="711"/>
			<point x="180" y="700" type="curve" smooth="yes"/>
			<point x="180" y="689"/>
			<point x="189" y="680"/>
		</contour>
		<contour>
			<point x="200" y="-20" type="curve" smooth="yes"/>
			<point x="666" y="-20" type="line" smooth="yes"/>
			<point x="677" y="-20"/>
			<point x="686" y="-11"/>
			<point x="686" y="0" type="curve" smooth="yes"/>
			<point x="686" y="11"/>
			<point x="677" y="20"/>
			<point x="666" y="20" type="curve" smooth="yes"/>
			<point x="200" y="20" type="line" smooth="yes"/>
			<point x="189" y="20"/>
			<point x="180" y="11"/>
			<point x="180" y="0" type="curve" smooth="yes"/>
			<point x="180" y="-11"/>
			<point x="189" y="-20"/>
		</contour>
		<contour>
			<point x="433" y="155" type="curve" smooth="yes"/>
			<point x="444" y="155"/>
			<point x="453" y="164"/>
			<point x="453" y="175" type="curve" smooth="yes"/>
			<point x="453" y="525" type="line" smooth="yes"/>
			<point x="453" y="536"/>
			<point x="444" y="545"/>
			<point x="433" y="545" type="curve" smooth="yes"/>
			<point x="422" y="545"/>
			<point x="413" y="536"/>
			<point x="413" y="525" type="curve" smooth="yes"/>
			<point x="413" y="175" type="line" smooth="yes"/>
			<point x="413" y="164"/>
			<point x="422" y="155"/>
		</contour>
	</outline>
</glyph>
<glyph name="J" format="2">
	<advance width="867"/>
	<unicode hex="004A"/>
	<note>
		J
  </note>
	<outline>
		<contour>
			<point x="200" y="-20" type="curve" smooth="yes"/>
			<point x="433" y="-20" type="line" smooth="yes"/>
			<point x="444" y="-20"/>
			<point x="453" y="-11"/>
			<point x="453" y="0" type="curve" smooth="yes"/>
			<point x="453" y="11"/>
			<point x="444" y="20"/>
			<point x="433" y="20" type="curve" smooth="yes"/>
			<point x="220" y="20" type="line"/>
			<point x="220" y="350" type="line" smooth="yes"/>
			<point x="220" y="361"/>
			<point x="211" y="370"/>
			<point x="200" y="370" type="curve" smooth="yes"/>
			<point x="189" y="370"/>
			<point x="180" y="361"/>
			<point x="180" y="350" type="curve" smooth="yes"/>
			<point x="180" y="0" type="line" smooth="yes"/>
			<point x="180" y="-13"/>
			<point x="187" y="-20"/>
		</contour>
		<contour>
			<point x="666" y="-20" type="curve" smooth="yes"/>
			<point x="677" y="-20"/>
			<point x="686" y="-11"/>
			<point x="686" y="0" type="curve" smooth="yes"/>
			<point x="686" y="700" type="line" smooth="yes"/>
			<point x="686" y="711"/>
			<point x="677" y="720"/>
			<point x="666" y="720" type="curve" smooth="yes"/>
			<point x="655" y="720"/>
			<point x="646" y="711"/>
			<point x="646" y="700" type="curve" smooth="yes"/>
			<point x="646" y="0" type="line" smooth="yes"/>
			<point x="646" y="-11"/>
			<point x="655" y="-20"/>
		</contour>
	</outline>
</glyph>
<glyph name="K" format="2">
	<advance width="867"/>
	<unicode hex="004B"/>
	<note>
		K
  </note>
	<outline>
		<contour>
			<point x="667" y="-20" type="curve" smooth="yes"/>
			<point x="678" y="-20"/>
			<point x="687" y="-11"/>
			<point x="687" y="0" type="curve" smooth="yes"/>
			<point x="687" y="4"/>
			<point x="686" y="8"/>
			<point x="683" y="11" type="curve"/>
			<point x="457" y="350" type="line"/>
			<point x="683" y="689" type="line"/>
			<point x="686" y="692"/>
			<point x="687" y="696"/>
			<point x="687" y="700" type="curve" smooth="yes"/>
			<point x="687" y="711"/>
			<point x="678" y="720"/>
			<point x="667" y="720" type="curve" smooth="yes"/>
			<point x="660" y="720"/>
			<point x="654" y="716"/>
			<point x="650" y="711" type="curve" smooth="yes"/>
			<point x="418" y="364" type="line" smooth="yes"/>
			<point x="412" y="354"/>
			<point x="412" y="346"/>
			<point x="418" y="336" type="curve" smooth="yes"/>
			<point x="650" y="-11" type="line" smooth="yes"/>
			<point x="654" y="-16"/>
			<point x="660" y="-20"/>
		</contour>
		<contour>
			<point x="200" y="-20" type="curve" smooth="yes"/>
			<point x="211" y="-20"/>
			<point x="220" y="-11"/>
			<point x="220" y="0" type="curve" smooth="yes"/>
			<point x="220" y="700" type="line" smooth="yes"/>
			<point x="220" y="711"/>
			<point x="211" y="720"/>
			<point x="200" y="720" type="curve" smooth="yes"/>
			<point x="189" y="720"/>
			<point x="180" y="711"/>
			<point x="180" y="700" type="curve" smooth="yes"/>
			<point x="180" y="0" type="line" smooth="yes"/>
			<point x="180" y="-11"/>
			<point x="189" y="-20"/>
		</contour>
	</outline>
</glyph>
<glyph name="L" format="2">
	<advance width="867"/>
	<unicode hex="004C"/>
	<note>
		L
  </note>
	<outline>
		<contour>
			<point x="200" y="-20" type="curve" smooth="yes"/>
			<point x="211" y="-20"/>
			<point x="220" y="-11"/>
			<point x="220" y="0" type="curve" smooth="yes"/>
			<point x="220" y="700" type="line" smooth="yes"/>
			<point x="220" y="711"/>
			<point x="211" y="720"/>
			<point x="200" y="720" type="curve" smooth="yes"/>
			<point x="189" y="720"/>
			<point x="180" y="711"/>
			<point x="180" y="700" type="curve" smooth="yes"/>
			<point x="180" y="0" type="line" smooth="yes"/>
			<point x="180" y="-11"/>
			<point x="189" y="-20"/>
		</contour>
		<contour>
			<point x="434" y="-20" type="curve" smooth="yes"/>
			<point x="667" y="-20" type="line" smooth="yes"/>
			<point x="678" y="-20"/>
			<point x="687" y="-11"/>
			<point x="687" y="0" type="curve" smooth="yes"/>
			<point x="687" y="11"/>
			<point x="678" y="20"/>
			<point x="667" y="20" type="curve" smooth="yes"/>
			<point x="434" y="20" type="line" smooth="yes"/>
			<point x="423" y="20"/>
			<point x="414" y="11"/>
			<point x="414" y="0" type="curve" smooth="yes"/>
			<point x="414" y="-11"/>
			<point x="423" y="-20"/>
		</contour>
	</outline>
</glyph>
<glyph name="M" format="2">
	<advance width="867"/>
	<unicode hex="004D"/>
	<note>
		M
  </note>
	<outline>
		<contour>
			<point x="184" y="689" type="curve"/>
			<point x="419" y="335" type="line" smooth="yes"/>
			<point x="427" y="322"/>
			<point x="439" y="322"/>
			<point x="447" y="335" type="curve" smooth="yes"/>
			<point x="682" y="689" type="line"/>
			<point x="685" y="692"/>
			<point x="686" y="696"/>
			<point x="686" y="700" type="curve" smooth="yes"/>
			<point x="686" y="711"/>
			<point x="677" y="720"/>
			<point x="666" y="720" type="curve" smooth="yes"/>
			<point x="659" y="720"/>
			<point x="653" y="716"/>
			<point x="649" y="711" type="curve" smooth="yes"/>
			<point x="433" y="386" type="line"/>
			<point x="217" y="711" type="line" smooth="yes"/>
			<point x="213" y="716"/>
			<point x="207" y="720"/>
			<point x="200" y="720" type="curve" smooth="yes"/>
			<point x="189" y="720"/>
			<point x="180" y="711"/>
			<point x="180" y="700" type="curve" smooth="yes"/>
			<point x="180" y="696"/>
			<point x="181" y="692"/>
		</contour>
		<contour>
			<point x="200" y="-20" type="curve" smooth="yes"/>
			<point x="211" y="-20"/>
			<point x="220" y="-11"/>
			<point x="220" y="0" type="curve" smooth="yes"/>
			<point x="220" y="350" type="line" smooth="yes"/>
			<point x="220" y="361"/>
			<point x="211" y="370"/>
			<point x="200" y="370" type="curve" smooth="yes"/>
			<point x="189" y="370"/>
			<point x="180" y="361"/>
			<point x="180" y="350" type="curve" smooth="yes"/>
			<point x="180" y="0" type="line" smooth="yes"/>
			<point x="180" y="-11"/>
			<point x="189" y="-20"/>
		</contour>
		<contour>
			<point x="666" y="-20" type="curve" smooth="yes"/>
			<point x="677" y="-20"/>
			<point x="686" y="-11"/>
			<point x="686" y="0" type="curve" smooth="yes"/>
			<point x="686" y="350" type="line" smooth="yes"/>
			<point x="686" y="361"/>
			<point x="677" y="370"/>
			<point x="666" y="370" type="curve" smooth="yes"/>
			<point x="655" y="370"/>
			<point x="646" y="361"/>
			<point x="646" y="350" type="curve" smooth="yes"/>
			<point x="646" y="0" type="line" smooth="yes"/>
			<point x="646" y="-11"/>
			<point x="655" y="-20"/>
		</contour>
	</outline>
</glyph>
<glyph name="N" format="2">
	<advance width="867"/>
	<unicode hex="004E"/>
	<note>
		N
  </note>
	<outline>
		<contour>
			<point x="550" y="155" type="curve" smooth="yes"/>
			<point x="561" y="155"/>
			<point x="570" y="164"/>
			<point x="570" y="175" type="curve" smooth="yes"/>
			<point x="570" y="179"/>
			<point x="569" y="183"/>
			<point x="566" y="186" type="curve"/>
			<point x="333" y="536" type="line" smooth="yes"/>
			<point x="329" y="541"/>
			<point x="323" y="545"/>
			<point x="316" y="545" type="curve" smooth="yes"/>
			<point x="305" y="545"/>
			<point x="296" y="536"/>
			<point x="296" y="525" type="curve" smooth="yes"/>
			<point x="296" y="521"/>
			<point x="297" y="517"/>
			<point x="300" y="514" type="curve"/>
			<point x="533" y="164" type="line" smooth="yes"/>
			<point x="537" y="159"/>
			<point x="543" y="155"/>
		</contour>
		<contour>
			<point x="200" y="-20" type="curve" smooth="yes"/>
			<point x="211" y="-20"/>
			<point x="220" y="-11"/>
			<point x="220" y="0" type="curve" smooth="yes"/>
			<point x="220" y="700" type="line" smooth="yes"/>
			<point x="220" y="711"/>
			<point x="211" y="720"/>
			<point x="200" y="720" type="curve" smooth="yes"/>
			<point x="189" y="720"/>
			<point x="180" y="711"/>
			<point x="180" y="700" type="curve" smooth="yes"/>
			<point x="180" y="0" type="line" smooth="yes"/>
			<point x="180" y="-11"/>
			<point x="189" y="-20"/>
		</contour>
		<contour>
			<point x="666" y="-20" type="curve" smooth="yes"/>
			<point x="677" y="-20"/>
			<point x="686" y="-11"/>
			<point x="686" y="0" type="curve" smooth="yes"/>
			<point x="686" y="700" type="line" smooth="yes"/>
			<point x="686" y="711"/>
			<point x="677" y="720"/>
			<point x="666" y="720" type="curve" smooth="yes"/>
			<point x="655" y="720"/>
			<point x="646" y="711"/>
			<point x="646" y="700" type="curve" smooth="yes"/>
			<point x="646" y="0" type="line" smooth="yes"/>
			<point x="646" y="-11"/>
			<point x="655" y="-20"/>
		</contour>
	</outline>
</glyph>
<glyph name="O" format="2">
	<advance width="867"/>
	<unicode hex="004F"/>
	<note>
		O
  </note>
	<outline>
		<contour>
			<point x="200" y="-20" type="curve" smooth="yes"/>
			<point x="666" y="-20" type="line" smooth="yes"/>
			<point x="679" y="-20"/>
			<point x="686" y="-13"/>
			<point x="686" y="0" type="curve" smooth="yes"/>
			<point x="686" y="700" type="line" smooth="yes"/>
			<point x="686" y="713"/>
			<point x="679" y="720"/>
			<point x="666" y="720" type="curve" smooth="yes"/>
			<point x="200" y="720" type="line" smooth="yes"/>
			<point x="187" y="720"/>
			<point x="180" y="713"/>
			<point x="180" y="700" type="curve" smooth="yes"/>
			<point x="180" y="0" type="line" smooth="yes"/>
			<point x="180" y="-13"/>
			<point x="187" y="-20"/>
		</contour>
		<contour>
			<point x="646" y="20" type="line"/>
			<point x="220" y="20" type="line"/>
			<point x="220" y="680" type="line"/>
			<point x="646" y="680" type="line"/>
		</contour>
	</outline>
</glyph>
<glyph name="P" format="2">
	<advance width="867"/>
	<unicode hex="0050"/>
	<note>
		P
  </note>
	<outline>
		<contour>
			<point x="550" y="330" type="curve" smooth="yes"/>
			<point x="557" y="330"/>
			<point x="563" y="334"/>
			<point x="567" y="339" type="curve" smooth="yes"/>
			<point x="681" y="511" type="line" smooth="yes"/>
			<point x="687" y="521"/>
			<point x="687" y="529"/>
			<point x="681" y="539" type="curve" smooth="yes"/>
			<point x="567" y="711" type="line" smooth="yes"/>
			<point x="563" y="716"/>
			<point x="557" y="720"/>
			<point x="550" y="720" type="curve" smooth="yes"/>
			<point x="539" y="720"/>
			<point x="530" y="711"/>
			<point x="530" y="700" type="curve" smooth="yes"/>
			<point x="530" y="696"/>
			<point x="531" y="692"/>
			<point x="533" y="689" type="curve" smooth="yes"/>
			<point x="642" y="525" type="line"/>
			<point x="533" y="361" type="line" smooth="yes"/>
			<point x="531" y="358"/>
			<point x="530" y="354"/>
			<point x="530" y="350" type="curve" smooth="yes"/>
			<point x="530" y="339"/>
			<point x="539" y="330"/>
		</contour>
		<contour>
			<point x="200" y="-20" type="curve" smooth="yes"/>
			<point x="211" y="-20"/>
			<point x="220" y="-11"/>
			<point x="220" y="0" type="curve" smooth="yes"/>
			<point x="220" y="700" type="line" smooth="yes"/>
			<point x="220" y="711"/>
			<point x="211" y="720"/>
			<point x="200" y="720" type="curve" smooth="yes"/>
			<point x="189" y="720"/>
			<point x="180" y="711"/>
			<point x="180" y="700" type="curve" smooth="yes"/>
			<point x="180" y="0" type="line" smooth="yes"/>
			<point x="180" y="-11"/>
			<point x="189" y="-20"/>
		</contour>
	</outline>
</glyph>
<glyph name="Q" format="2">
	<advance width="867"/>
	<unicode hex="0051"/>
	<note>
		Q
  </note>
	<outline>
		<contour>
			<point x="200" y="-20" type="curve" smooth="yes"/>
			<point x="433" y="-20" type="line" smooth="yes"/>
			<point x="444" y="-20"/>
			<point x="453" y="-11"/>
			<point x="453" y="0" type="curve" smooth="yes"/>
			<point x="453" y="11"/>
			<point x="444" y="20"/>
			<point x="433" y="20" type="curve" smooth="yes"/>
			<point x="220" y="20" type="line"/>
			<point x="220" y="680" type="line"/>
			<point x="646" y="680" type="line"/>
			<point x="646" y="350" type="line" smooth="yes"/>
			<point x="646" y="339"/>
			<point x="655" y="330"/>
			<point x="666" y="330" type="curve" smooth="yes"/>
			<point x="677" y="330"/>
			<point x="686" y="339"/>
			<point x="686" y="350" type="curve" smooth="yes"/>
			<point x="686" y="700" type="line" smooth="yes"/>
			<point x="686" y="713"/>
			<point x="679" y="720"/>
			<point x="666" y="720" type="curve" smooth="yes"/>
			<point x="200" y="720" type="line" smooth="yes"/>
			<point x="187" y="720"/>
			<point x="180" y="713"/>
			<point x="180" y="700" type="curve" smooth="yes"/>
			<point x="180" y="0" type="line" smooth="yes"/>
			<point x="180" y="-13"/>
			<point x="187" y="-20"/>
		</contour>
		<contour>
			<point x="666" y="-20" type="curve" smooth="yes"/>
			<point x="677" y="-20"/>
			<point x="686" y="-11"/>
			<point x="686" y="0" type="curve" smooth="yes"/>
			<point x="686" y="4"/>
			<point x="685" y="8"/>
			<point x="682" y="11" type="curve"/>
			<point x="450" y="361" type="line" smooth="yes"/>
			<point x="446" y="366"/>
			<point x="440" y="370"/>
			<point x="433" y="370" type="curve" smooth="yes"/>
			<point x="422" y="370"/>
			<point x="413" y="361"/>
			<point x="413" y="350" type="curve" smooth="yes"/>
			<point x="413" y="346"/>
			<point x="414" y="342"/>
			<point x="417" y="339" type="curve"/>
			<point x="649" y="-11" type="line" smooth="yes"/>
			<point x="653" y="-16"/>
			<point x="659" y="-20"/>
		</contour>
	</outline>
</glyph>
<glyph name="R" format="2">
	<advance width="867"/>
	<unicode hex="0052"/>
	<note>
		R
  </note>
	<outline>
		<contour>
			<point x="550" y="330" type="curve" smooth="yes"/>
			<point x="557" y="330"/>
			<point x="563" y="334"/>
			<point x="567" y="339" type="curve" smooth="yes"/>
			<point x="681" y="511" type="line" smooth="yes"/>
			<point x="687" y="521"/>
			<point x="687" y="529"/>
			<point x="681" y="539" type="curve" smooth="yes"/>
			<point x="567" y="711" type="line" smooth="yes"/>
			<point x="563" y="716"/>
			<point x="557" y="720"/>
			<point x="550" y="720" type="curve" smooth="yes"/>
			<point x="539" y="720"/>
			<point x="530" y="711"/>
			<point x="530" y="700" type="curve" smooth="yes"/>
			<point x="530" y="696"/>
			<point x="531" y="692"/>
			<point x="533" y="689" type="curve" smooth="yes"/>
			<point x="642" y="525" type="line"/>
			<point x="533" y="361" type="line" smooth="yes"/>
			<point x="531" y="358"/>
			<point x="530" y="354"/>
			<point x="530" y="350" type="curve" smooth="yes"/>
			<point x="530" y="339"/>
			<point x="539" y="330"/>
		</contour>
		<contour>
			<point x="200" y="-20" type="curve" smooth="yes"/>
			<point x="211" y="-20"/>
			<point x="220" y="-11"/>
			<point x="220" y="0" type="curve" smooth="yes"/>
			<point x="220" y="700" type="line" smooth="yes"/>
			<point x="220" y="711"/>
			<point x="211" y="720"/>
			<point x="200" y="720" type="curve" smooth="yes"/>
			<point x="189" y="720"/>
			<point x="180" y="711"/>
			<point x="180" y="700" type="curve" smooth="yes"/>
			<point x="180" y="0" type="line" smooth="yes"/>
			<point x="180" y="-11"/>
			<point x="189" y="-20"/>
		</contour>
		<contour>
			<point x="666" y="-20" type="curve" smooth="yes"/>
			<point x="677" y="-20"/>
			<point x="686" y="-11"/>
			<point x="686" y="0" type="curve" smooth="yes"/>
			<point x="686" y="4"/>
			<point x="685" y="8"/>
			<point x="683" y="11" type="curve" smooth="yes"/>
			<point x="567" y="186" type="line" smooth="yes"/>
			<point x="563" y="191"/>
			<point x="557" y="195"/>
			<point x="550" y="195" type="curve" smooth="yes"/>
			<point x="539" y="195"/>
			<point x="530" y="186"/>
			<point x="530" y="175" type="curve" smooth="yes"/>
			<point x="530" y="171"/>
			<point x="531" y="167"/>
			<point x="533" y="164" type="curve" smooth="yes"/>
			<point x="649" y="-11" type="line" smooth="yes"/>
			<point x="653" y="-16"/>
			<point x="659" y="-20"/>
		</contour>
	</outline>
</glyph>
<glyph name="S" format="2">
	<advance width="867"/>
	<unicode hex="0053"/>
	<note>
		S
  </note>
	<outline>
		<contour>
			<point x="200" y="330" type="curve" smooth="yes"/>
			<point x="211" y="330"/>
			<point x="220" y="339"/>
			<point x="220" y="350" type="curve" smooth="yes"/>
			<point x="220" y="680" type="line"/>
			<point x="667" y="680" type="line" smooth="yes"/>
			<point x="678" y="680"/>
			<point x="687" y="689"/>
			<point x="687" y="700" type="curve" smooth="yes"/>
			<point x="687" y="711"/>
			<point x="678" y="720"/>
			<point x="667" y="720" type="curve" smooth="yes"/>
			<point x="200" y="720" type="line" smooth="yes"/>
			<point x="187" y="720"/>
			<point x="180" y="713"/>
			<point x="180" y="700" type="curve" smooth="yes"/>
			<point x="180" y="350" type="line" smooth="yes"/>
			<point x="180" y="339"/>
			<point x="189" y="330"/>
		</contour>
		<contour>
			<point x="200" y="-20" type="curve" smooth="yes"/>
			<point x="667" y="-20" type="line" smooth="yes"/>
			<point x="680" y="-20"/>
			<point x="687" y="-13"/>
			<point x="687" y="0" type="curve" smooth="yes"/>
			<point x="687" y="350" type="line" smooth="yes"/>
			<point x="687" y="361"/>
			<point x="678" y="370"/>
			<point x="667" y="370" type="curve" smooth="yes"/>
			<point x="656" y="370"/>
			<point x="647" y="361"/>
			<point x="647" y="350" type="curve" smooth="yes"/>
			<point x="647" y="20" type="line"/>
			<point x="200" y="20" type="line" smooth="yes"/>
			<point x="189" y="20"/>
			<point x="180" y="11"/>
			<point x="180" y="0" type="curve" smooth="yes"/>
			<point x="180" y="-11"/>
			<point x="189" y="-20"/>
		</contour>
		<contour>
			<point x="317" y="330" type="curve" smooth="yes"/>
			<point x="550" y="330" type="line" smooth="yes"/>
			<point x="561" y="330"/>
			<point x="570" y="339"/>
			<point x="570" y="350" type="curve" smooth="yes"/>
			<point x="570" y="361"/>
			<point x="561" y="370"/>
			<point x="550" y="370" type="curve" smooth="yes"/>
			<point x="317" y="370" type="line" smooth="yes"/>
			<point x="306" y="370"/>
			<point x="297" y="361"/>
			<point x="297" y="350" type="curve" smooth="yes"/>
			<point x="297" y="339"/>
			<point x="306" y="330"/>
		</contour>
	</outline>
</glyph>
<glyph name="T" format="2">
	<advance width="867"/>
	<unicode hex="0054"/>
	<note>
		T
  </note>
	<outline>
		<contour>
			<point x="200" y="680" type="curve" smooth="yes"/>
			<point x="666" y="680" type="line" smooth="yes"/>
			<point x="677" y="680"/>
			<point x="686" y="689"/>
			<point x="686" y="700" type="curve" smooth="yes"/>
			<point x="686" y="711"/>
			<point x="677" y="720"/>
			<point x="666" y="720" type="curve" smooth="yes"/>
			<point x="200" y="720" type="line" smooth="yes"/>
			<point x="189" y="720"/>
			<point x="180" y="711"/>
			<point x="180" y="700" type="curve" smooth="yes"/>
			<point x="180" y="689"/>
			<point x="189" y="680"/>
		</contour>
		<contour>
			<point x="433" y="-20" type="curve" smooth="yes"/>
			<point x="444" y="-20"/>
			<point x="453" y="-11"/>
			<point x="453" y="0" type="curve" smooth="yes"/>
			<point x="453" y="350" type="line" smooth="yes"/>
			<point x="453" y="361"/>
			<point x="444" y="370"/>
			<point x="433" y="370" type="curve" smooth="yes"/>
			<point x="422" y="370"/>
			<point x="413" y="361"/>
			<point x="413" y="350" type="curve" smooth="yes"/>
			<point x="413" y="0" type="line" smooth="yes"/>
			<point x="413" y="-11"/>
			<point x="422" y="-20"/>
		</contour>
	</outline>
</glyph>
<glyph name="U" format="2">
	<advance width="867"/>
	<unicode hex="0055"/>
	<note>
		U
  </note>
	<outline>
		<contour>
			<point x="200" y="-20" type="curve" smooth="yes"/>
			<point x="667" y="-20" type="line" smooth="yes"/>
			<point x="678" y="-20"/>
			<point x="687" y="-11"/>
			<point x="687" y="0" type="curve" smooth="yes"/>
			<point x="687" y="11"/>
			<point x="678" y="20"/>
			<point x="667" y="20" type="curve" smooth="yes"/>
			<point x="200" y="20" type="line" smooth="yes"/>
			<point x="189" y="20"/>
			<point x="180" y="11"/>
			<point x="180" y="0" type="curve" smooth="yes"/>
			<point x="180" y="-11"/>
			<point x="189" y="-20"/>
		</contour>
		<contour>
			<point x="200" y="330" type="curve" smooth="yes"/>
			<point x="211" y="330"/>
			<point x="220" y="339"/>
			<point x="220" y="350" type="curve" smooth="yes"/>
			<point x="220" y="700" type="line" smooth="yes"/>
			<point x="220" y="711"/>
			<point x="211" y="720"/>
			<point x="200" y="720" type="curve" smooth="yes"/>
			<point x="189" y="720"/>
			<point x="180" y="711"/>
			<point x="180" y="700" type="curve" smooth="yes"/>
			<point x="180" y="350" type="line" smooth="yes"/>
			<point x="180" y="339"/>
			<point x="189" y="330"/>
		</contour>
		<contour>
			<point x="667" y="330" type="curve" smooth="yes"/>
			<point x="678" y="330"/>
			<point x="687" y="339"/>
			<point x="687" y="350" type="curve" smooth="yes"/>
			<point x="687" y="700" type="line" smooth="yes"/>
			<point x="687" y="711"/>
			<point x="678" y="720"/>
			<point x="667" y="720" type="curve" smooth="yes"/>
			<point x="656" y="720"/>
			<point x="647" y="711"/>
			<point x="647" y="700" type="curve" smooth="yes"/>
			<point x="647" y="350" type="line" smooth="yes"/>
			<point x="647" y="339"/>
			<point x="656" y="330"/>
		</contour>
	</outline>
</glyph>
<glyph name="V" format="2">
	<advance width="867"/>
	<unicode hex="0056"/>
	<note>
		V
  </note>
	<outline>
		<contour>
			<point x="301" y="164" type="curve"/>
			<point x="420" y="-15" type="line" smooth="yes"/>
			<point x="428" y="-28"/>
			<point x="440" y="-28"/>
			<point x="448" y="-15" type="curve" smooth="yes"/>
			<point x="567" y="164" type="line" smooth="yes"/>
			<point x="569" y="167"/>
			<point x="570" y="171"/>
			<point x="570" y="175" type="curve" smooth="yes"/>
			<point x="570" y="186"/>
			<point x="561" y="195"/>
			<point x="550" y="195" type="curve" smooth="yes"/>
			<point x="543" y="195"/>
			<point x="537" y="191"/>
			<point x="533" y="186" type="curve" smooth="yes"/>
			<point x="434" y="36" type="line"/>
			<point x="334" y="186" type="line" smooth="yes"/>
			<point x="330" y="191"/>
			<point x="324" y="195"/>
			<point x="317" y="195" type="curve" smooth="yes"/>
			<point x="306" y="195"/>
			<point x="297" y="186"/>
			<point x="297" y="175" type="curve" smooth="yes"/>
			<point x="297" y="171"/>
			<point x="298" y="167"/>
		</contour>
		<contour>
			<point x="200" y="330" type="curve" smooth="yes"/>
			<point x="211" y="330"/>
			<point x="220" y="339"/>
			<point x="220" y="350" type="curve" smooth="yes"/>
			<point x="220" y="700" type="line" smooth="yes"/>
			<point x="220" y="711"/>
			<point x="211" y="720"/>
			<point x="200" y="720" type="curve" smooth="yes"/>
			<point x="189" y="720"/>
			<point x="180" y="711"/>
			<point x="180" y="700" type="curve" smooth="yes"/>
			<point x="180" y="350" type="line" smooth="yes"/>
			<point x="180" y="339"/>
			<point x="189" y="330"/>
		</contour>
		<contour>
			<point x="667" y="330" type="curve" smooth="yes"/>
			<point x="678" y="330"/>
			<point x="687" y="339"/>
			<point x="687" y="350" type="curve" smooth="yes"/>
			<point x="687" y="700" type="line" smooth="yes"/>
			<point x="687" y="711"/>
			<point x="678" y="720"/>
			<point x="667" y="720" type="curve" smooth="yes"/>
			<point x="656" y="720"/>
			<point x="647" y="711"/>
			<point x="647" y="700" type="curve" smooth="yes"/>
			<point x="647" y="350" type="line" smooth="yes"/>
			<point x="647" y="339"/>
			<point x="656" y="330"/>
		</contour>
	</outline>
</glyph>
<glyph name="W" format="2">
	<advance width="867"/>
	<unicode hex="0057"/>
	<note>
		W
  </note>
	<outline>
		<contour>
			<point x="200" y="-20" type="curve" smooth="yes"/>
			<point x="207" y="-20"/>
			<point x="213" y="-16"/>
			<point x="217" y="-11" type="curve" smooth="yes"/>
			<point x="433" y="314" type="line"/>
			<point x="649" y="-11" type="line" smooth="yes"/>
			<point x="653" y="-16"/>
			<point x="659" y="-20"/>
			<point x="666" y="-20" type="curve" smooth="yes"/>
			<point x="677" y="-20"/>
			<point x="686" y="-11"/>
			<point x="686" y="0" type="curve" smooth="yes"/>
			<point x="686" y="4"/>
			<point x="685" y="8"/>
			<point x="682" y="11" type="curve"/>
			<point x="447" y="365" type="line" smooth="yes"/>
			<point x="439" y="378"/>
			<point x="427" y="378"/>
			<point x="419" y="365" type="curve" smooth="yes"/>
			<point x="184" y="11" type="line"/>
			<point x="181" y="8"/>
			<point x="180" y="4"/>
			<point x="180" y="0" type="curve" smooth="yes"/>
			<point x="180" y="-11"/>
			<point x="189" y="-20"/>
		</contour>
		<contour>
			<point x="200" y="330" type="curve" smooth="yes"/>
			<point x="211" y="330"/>
			<point x="220" y="339"/>
			<point x="220" y="350" type="curve" smooth="yes"/>
			<point x="220" y="700" type="line" smooth="yes"/>
			<point x="220" y="711"/>
			<point x="211" y="720"/>
			<point x="200" y="720" type="curve" smooth="yes"/>
			<point x="189" y="720"/>
			<point x="180" y="711"/>
			<point x="180" y="700" type="curve" smooth="yes"/>
			<point x="180" y="350" type="line" smooth="yes"/>
			<point x="180" y="339"/>
			<point x="189" y="330"/>
		</contour>
		<contour>
			<point x="666" y="330" type="curve" smooth="yes"/>
			<point x="677" y="330"/>
			<point x="686" y="339"/>
			<point x="686" y="350" type="curve" smooth="yes"/>
			<point x="686" y="700" type="line" smooth="yes"/>
			<point x="686" y="711"/>
			<point x="677" y="720"/>
			<point x="666" y="720" type="curve" smooth="yes"/>
			<point x="655" y="720"/>
			<point x="646" y="711"/>
			<point x="646" y="700" type="curve" smooth="yes"/>
			<point x="646" y="350" type="line" smooth="yes"/>
			<point x="646" y="339"/>
			<point x="655" y="330"/>
		</contour>
	</outline>
</glyph>
<glyph name="X" format="2">
	<advance width="867"/>
	<unicode hex="0058"/>
	<note>
		X
  </note>
	<outline>
		<contour>
			<point x="200" y="-20" type="curve" smooth="yes"/>
			<point x="207" y="-20"/>
			<point x="213" y="-16"/>
			<point x="217" y="-11" type="curve" smooth="yes"/>
			<point x="682" y="689" type="line"/>
			<point x="685" y="692"/>
			<point x="686" y="696"/>
			<point x="686" y="700" type="curve" smooth="yes"/>
			<point x="686" y="711"/>
			<point x="677" y="720"/>
			<point x="666" y="720" type="curve" smooth="yes"/>
			<point x="659" y="720"/>
			<point x="653" y="716"/>
			<point x="649" y="711" type="curve" smooth="yes"/>
			<point x="184" y="11" type="line"/>
			<point x="181" y="8"/>
			<point x="180" y="4"/>
			<point x="180" y="0" type="curve" smooth="yes"/>
			<point x="180" y="-11"/>
			<point x="189" y="-20"/>
		</contour>
		<contour>
			<point x="666" y="-20" type="curve" smooth="yes"/>
			<point x="677" y="-20"/>
			<point x="686" y="-11"/>
			<point x="686" y="0" type="curve" smooth="yes"/>
			<point x="686" y="4"/>
			<point x="685" y="8"/>
			<point x="683" y="11" type="curve" smooth="yes"/>
			<point x="567" y="186" type="line" smooth="yes"/>
			<point x="563" y="191"/>
			<point x="557" y="195"/>
			<point x="550" y="195" type="curve" smooth="yes"/>
			<point x="539" y="195"/>
			<point x="530" y="186"/>
			<point x="530" y="175" type="curve" smooth="yes"/>
			<point x="530" y="171"/>
			<point x="531" y="167"/>
			<point x="533" y="164" type="curve" smooth="yes"/>
			<point x="649" y="-11" type="line" smooth="yes"/>
			<point x="653" y="-16"/>
			<point x="659" y="-20"/>
		</contour>
		<contour>
			<point x="316" y="505" type="curve" smooth="yes"/>
			<point x="327" y="505"/>
			<point x="336" y="514"/>
			<point x="336" y="525" type="curve" smooth="yes"/>
			<point x="336" y="529"/>
			<point x="335" y="533"/>
			<point x="333" y="536" type="curve" smooth="yes"/>
			<point x="217" y="711" type="line" smooth="yes"/>
			<point x="213" y="716"/>
			<point x="207" y="720"/>
			<point x="200" y="720" type="curve" smooth="yes"/>
			<point x="189" y="720"/>
			<point x="180" y="711"/>
			<point x="180" y="700" type="curve" smooth="yes"/>
			<point x="180" y="696"/>
			<point x="181" y="692"/>
			<point x="183" y="689" type="curve" smooth="yes"/>
			<point x="299" y="514" type="line" smooth="yes"/>
			<point x="303" y="509"/>
			<point x="309" y="505"/>
		</contour>
	</outline>
</glyph>
<glyph name="Y" format="2">
	<advance width="867"/>
	<unicode hex="0059"/>
	<note>
		Y
  </note>
	<outline>
		<contour>
			<point x="200" y="-20" type="curve" smooth="yes"/>
			<point x="207" y="-20"/>
			<point x="213" y="-16"/>
			<point x="217" y="-11" type="curve" smooth="yes"/>
			<point x="682" y="689" type="line"/>
			<point x="685" y="692"/>
			<point x="686" y="696"/>
			<point x="686" y="700" type="curve" smooth="yes"/>
			<point x="686" y="711"/>
			<point x="677" y="720"/>
			<point x="666" y="720" type="curve" smooth="yes"/>
			<point x="659" y="720"/>
			<point x="653" y="716"/>
			<point x="649" y="711" type="curve" smooth="yes"/>
			<point x="184" y="11" type="line"/>
			<point x="181" y="8"/>
			<point x="180" y="4"/>
			<point x="180" y="0" type="curve" smooth="yes"/>
			<point x="180" y="-11"/>
			<point x="189" y="-20"/>
		</contour>
		<contour>
			<point x="316" y="505" type="curve" smooth="yes"/>
			<point x="327" y="505"/>
			<point x="336" y="514"/>
			<point x="336" y="525" type="curve" smooth="yes"/>
			<point x="336" y="529"/>
			<point x="335" y="533"/>
			<point x="333" y="536" type="curve" smooth="yes"/>
			<point x="217" y="711" type="line" smooth="yes"/>
			<point x="213" y="716"/>
			<point x="207" y="720"/>
			<point x="200" y="720" type="curve" smooth="yes"/>
			<point x="189" y="720"/>
			<point x="180" y="711"/>
			<point x="180" y="700" type="curve" smooth="yes"/>
			<point x="180" y="696"/>
			<point x="181" y="692"/>
			<point x="183" y="689" type="curve" smooth="yes"/>
			<point x="299" y="514" type="line" smooth="yes"/>
			<point x="303" y="509"/>
			<point x="309" y="505"/>
		</contour>
	</outline>
</glyph>
<glyph name="Z" format="2">
	<advance width="867"/>
	<unicode hex="005A"/>
	<note>
		Z
  </note>
	<outline>
		<contour>
			<point x="317" y="155" type="curve" smooth="yes"/>
			<point x="324" y="155"/>
			<point x="330" y="159"/>
			<point x="334" y="164" type="curve" smooth="yes"/>
			<point x="566" y="514" type="line"/>
			<point x="569" y="517"/>
			<point x="570" y="521"/>
			<point x="570" y="525" type="curve" smooth="yes"/>
			<point x="570" y="536"/>
			<point x="561" y="545"/>
			<point x="550" y="545" type="curve" smooth="yes"/>
			<point x="543" y="545"/>
			<point x="537" y="541"/>
			<point x="533" y="536" type="curve" smooth="yes"/>
			<point x="301" y="186" type="line"/>
			<point x="298" y="183"/>
			<point x="297" y="179"/>
			<point x="297" y="175" type="curve" smooth="yes"/>
			<point x="297" y="164"/>
			<point x="306" y="155"/>
		</contour>
		<contour>
			<point x="200" y="-20" type="curve" smooth="yes"/>
			<point x="667" y="-20" type="line" smooth="yes"/>
			<point x="678" y="-20"/>
			<point x="687" y="-11"/>
			<point x="687" y="0" type="curve" smooth="yes"/>
			<point x="687" y="11"/>
			<point x="678" y="20"/>
			<point x="667" y="20" type="curve" smooth="yes"/>
			<point x="200" y="20" type="line" smooth="yes"/>
			<point x="189" y="20"/>
			<point x="180" y="11"/>
			<point x="180" y="0" type="curve" smooth="yes"/>
			<point x="180" y="-11"/>
			<point x="189" y="-20"/>
		</contour>
		<contour>
			<point x="200" y="680" type="curve" smooth="yes"/>
			<point x="667" y="680" type="line" smooth="yes"/>
			<point x="678" y="680"/>
			<point x="687" y="689"/>
			<point x="687" y="700" type="curve" smooth="yes"/>
			<point x="687" y="711"/>
			<point x="678" y="720"/>
			<point x="667" y="720" type="curve" smooth="yes"/>
			<point x="200" y="720" type="line" smooth="yes"/>
			<point x="189" y="720"/>
			<point x="180" y="711"/>
			<point x="180" y="700" type="curve" smooth="yes"/>
			<point x="180" y="689"/>
			<point x="189" y="680"/>
		</contour>
	</outline>
</glyph>
<glyph name=".notdef" format="2">
	<advance width="350"/>
	<note>
		.notdef
  </note>
	<outline>
		<contour>
			<point x="65" y="-20" type="curve" smooth="yes"/>
			<point x="287" y="-20" type="line" smooth="yes"/>
			<point x="300" y="-20"/>
			<point x="307" y="-13"/>
			<point x="307" y="0" type="curve" smooth="yes"/>
			<point x="307" y="700" type="line" smooth="yes"/>
			<point x="307" y="713"/>
			<point x="300" y="720"/>
			<point x="287" y="720" type="curve" smooth="yes"/>
			<point x="65" y="720" type="line" smooth="yes"/>
			<point x="52" y="720"/>
			<point x="45" y="713"/>
			<point x="45" y="700" type="curve" smooth="yes"/>
			<point x="45" y="0" type="line" smooth="yes"/>
			<point x="45" y="-13"/>
			<point x="52" y="-20"/>
		</contour>
		<contour>
			<point x="157" y="68" type="line"/>
			<point x="148" y="68" type="line"/>
			<point x="155" y="73" type="line"/>
		</contour>
		<contour>
			<point x="179" y="107" type="line"/>
			<point x="172" y="103" type="line"/>
			<point x="171" y="107" type="line"/>
		</contour>
		<contour>
			<point x="117" y="28" type="curve" smooth="yes"/>
			<point x="233" y="28" type="line" smooth="yes"/>
			<point x="246" y="28"/>
			<point x="253" y="35"/>
			<point x="253" y="48" type="curve" smooth="yes"/>
			<point x="253" y="223" type="line" smooth="yes"/>
			<point x="253" y="236"/>
			<point x="246" y="243"/>
			<point x="233" y="243" type="curve" smooth="yes"/>
			<point x="117" y="243" type="line" smooth="yes"/>
			<point x="104" y="243"/>
			<point x="97" y="236"/>
			<point x="97" y="223" type="curve" smooth="yes"/>
			<point x="97" y="84" type="line"/>
			<point x="100" y="84" type="line"/>
			<point x="99" y="83" type="line" smooth="yes"/>
			<point x="97" y="82"/>
			<point x="97" y="77"/>
			<point x="97" y="67" type="curve" smooth="yes"/>
			<point x="97" y="48" type="line" smooth="yes"/>
			<point x="97" y="35"/>
			<point x="104" y="28"/>
		</contour>
		<contour>
			<point x="267" y="20" type="line"/>
			<point x="85" y="20" type="line"/>
			<point x="85" y="680" type="line"/>
			<point x="267" y="680" type="line"/>
		</contour>
		<contour>
			<point x="117" y="245" type="curve" smooth="yes"/>
			<point x="233" y="245" type="line" smooth="yes"/>
			<point x="246" y="245"/>
			<point x="253" y="252"/>
			<point x="253" y="265" type="curve" smooth="yes"/>
			<point x="253" y="514" type="line" smooth="yes"/>
			<point x="253" y="527"/>
			<point x="246" y="534"/>
			<point x="233" y="534" type="curve" smooth="yes"/>
			<point x="207" y="534" type="line"/>
			<point x="207" y="561" type="line"/>
			<point x="233" y="561" type="line" smooth="yes"/>
			<point x="246" y="561"/>
			<point x="253" y="568"/>
			<point x="253" y="581" type="curve" smooth="yes"/>
			<point x="253" y="653" type="line" smooth="yes"/>
			<point x="253" y="666"/>
			<point x="246" y="673"/>
			<point x="233" y="673" type="curve" smooth="yes"/>
			<point x="118" y="673" type="line" smooth="yes"/>
			<point x="105" y="673"/>
			<point x="98" y="666"/>
			<point x="98" y="653" type="curve" smooth="yes"/>
			<point x="98" y="624" type="line"/>
			<point x="97" y="624" type="line"/>
			<point x="97" y="265" type="line" smooth="yes"/>
			<point x="97" y="252"/>
			<point x="104" y="245"/>
		</contour>
		<contour>
			<point x="160" y="519" type="line"/>
			<point x="143" y="519" type="line"/>
			<point x="143" y="534" type="line"/>
			<point x="160" y="534" type="line"/>
		</contour>
	</outline>
</glyph>
